<svg width="76" height="77" viewBox="0 0 76 77" fill="none" xmlns="http://www.w3.org/2000/svg">
  <!-- Corporate design with consistent background -->
  <rect width="76" height="77" fill="#343434" rx="4"/>
  
  <!-- Main building structure -->
  <rect x="26" y="16" width="24" height="45" fill="#2c3e50" rx="1.5"/>
  
  <!-- Building windows - grid pattern -->
  <g fill="#ffffff">
    <rect x="29" y="22" width="3" height="3" rx="0.4"/>
    <rect x="34" y="22" width="3" height="3" rx="0.4"/>
    <rect x="39" y="22" width="3" height="3" rx="0.4"/>
    <rect x="44" y="22" width="3" height="3" rx="0.4"/>
    
    <rect x="29" y="28" width="3" height="3" rx="0.4"/>
    <rect x="34" y="28" width="3" height="3" rx="0.4"/>
    <rect x="39" y="28" width="3" height="3" rx="0.4"/>
    <rect x="44" y="28" width="3" height="3" rx="0.4"/>
    
    <rect x="29" y="34" width="3" height="3" rx="0.4"/>
    <rect x="34" y="34" width="3" height="3" rx="0.4"/>
    <rect x="39" y="34" width="3" height="3" rx="0.4"/>
    <rect x="44" y="34" width="3" height="3" rx="0.4"/>
    
    <rect x="29" y="40" width="3" height="3" rx="0.4"/>
    <rect x="34" y="40" width="3" height="3" rx="0.4"/>
    <rect x="39" y="40" width="3" height="3" rx="0.4"/>
    <rect x="44" y="40" width="3" height="3" rx="0.4"/>
    
    <rect x="29" y="46" width="3" height="3" rx="0.4"/>
    <rect x="34" y="46" width="3" height="3" rx="0.4"/>
    <rect x="39" y="46" width="3" height="3" rx="0.4"/>
    <rect x="44" y="46" width="3" height="3" rx="0.4"/>
    
    <rect x="29" y="52" width="3" height="3" rx="0.4"/>
    <rect x="34" y="52" width="3" height="3" rx="0.4"/>
    <rect x="39" y="52" width="3" height="3" rx="0.4"/>
    <rect x="44" y="52" width="3" height="3" rx="0.4"/>
  </g>
  
  <!-- Side buildings for depth -->
  <rect x="16" y="28" width="10" height="33" fill="#34495e" rx="0.8"/>
  <rect x="50" y="24" width="10" height="37" fill="#34495e" rx="0.8"/>
  
  <!-- Side building windows -->
  <g fill="#ffffff" opacity="0.8">
    <!-- Left building -->
    <rect x="18" y="32" width="1.5" height="1.5" rx="0.2"/>
    <rect x="21" y="32" width="1.5" height="1.5" rx="0.2"/>
    <rect x="18" y="37" width="1.5" height="1.5" rx="0.2"/>
    <rect x="21" y="37" width="1.5" height="1.5" rx="0.2"/>
    <rect x="18" y="42" width="1.5" height="1.5" rx="0.2"/>
    <rect x="21" y="42" width="1.5" height="1.5" rx="0.2"/>
    <rect x="18" y="47" width="1.5" height="1.5" rx="0.2"/>
    <rect x="21" y="47" width="1.5" height="1.5" rx="0.2"/>
    <rect x="18" y="52" width="1.5" height="1.5" rx="0.2"/>
    <rect x="21" y="52" width="1.5" height="1.5" rx="0.2"/>
    
    <!-- Right building -->
    <rect x="52" y="28" width="1.5" height="1.5" rx="0.2"/>
    <rect x="55" y="28" width="1.5" height="1.5" rx="0.2"/>
    <rect x="52" y="33" width="1.5" height="1.5" rx="0.2"/>
    <rect x="55" y="33" width="1.5" height="1.5" rx="0.2"/>
    <rect x="52" y="38" width="1.5" height="1.5" rx="0.2"/>
    <rect x="55" y="38" width="1.5" height="1.5" rx="0.2"/>
    <rect x="52" y="43" width="1.5" height="1.5" rx="0.2"/>
    <rect x="55" y="43" width="1.5" height="1.5" rx="0.2"/>
    <rect x="52" y="48" width="1.5" height="1.5" rx="0.2"/>
    <rect x="55" y="48" width="1.5" height="1.5" rx="0.2"/>
    <rect x="52" y="53" width="1.5" height="1.5" rx="0.2"/>
    <rect x="55" y="53" width="1.5" height="1.5" rx="0.2"/>
  </g>
  
  <!-- Professional accent - subtle line at top -->
  <rect x="10" y="13" width="56" height="1.5" fill="#3498db" opacity="0.6"/>
</svg>
